<svg xmlns="http://www.w3.org/2000/svg" xmlns:xlink="http://www.w3.org/1999/xlink" version="1.1"
  width="256" height="256" viewBox="0 0 256 256" xml:space="preserve">

<defs>
</defs>
<g style="stroke: none; stroke-width: 0; stroke-dasharray: none; stroke-linecap: butt; stroke-linejoin: miter; stroke-miterlimit: 10; fill: none; fill-rule: nonzero; opacity: 1;" transform="translate(1.4065934065934016 1.4065934065934016) scale(2.81 2.81)" >
	<path d="M 45.099 0 C 20.247 -0.055 0.055 20.048 0 44.901 C -0.055 69.753 20.048 89.945 44.901 90 C 69.753 90.055 89.945 69.952 90 45.099 C 90.055 20.247 69.952 0.055 45.099 0 z M 59.328 66.282 l -28.75 -0.063 l 0.014 -6.202 c 5.263 -2.374 6.592 -6.53 6.783 -13.806 l -6.631 -0.015 l 0.013 -6 l 6.458 0.014 c -0.136 -8.714 1.777 -14.488 5.811 -17.588 c 3.779 -2.902 9.118 -3.171 15.866 -0.796 l -1.991 5.66 c -4.715 -1.66 -8.154 -1.694 -10.219 -0.106 c -2.403 1.847 -3.579 6.26 -3.463 12.844 l 9.033 0.02 l -0.013 6 l -8.858 -0.02 c -0.117 5.081 -0.765 10.072 -3.632 14.015 l 19.592 0.043 L 59.328 66.282 z" style="stroke: none; stroke-width: 1; stroke-dasharray: none; stroke-linecap: butt; stroke-linejoin: miter; stroke-miterlimit: 10; fill: rgb(107 217 104); fill-rule: nonzero; opacity: 1;" transform=" matrix(1 0 0 1 0 0) " stroke-linecap="round" />
</g>
</svg>